SRRun01_grf
version=1
nRows=18
nColumns=19
inDegrees=no
endheader
time	ground_force_r_vx	ground_force_r_vy	ground_force_r_vz	ground_force_r_px	ground_force_r_py	ground_force_r_pz	ground_force_r_mx	ground_force_r_my	ground_force_r_mz	ground_force_l_vx	ground_force_l_vy	ground_force_l_vz	ground_force_l_px	ground_force_l_py	ground_force_l_pz	ground_force_l_mx	ground_force_l_my	ground_force_l_mz
    139.99600000	      0.00000000	      0.00000000	      0.00000000	      0.00000000	      0.00000000	      0.00000000	      0.00000000	      0.00000000	      0.00000000	    144.18179164	    575.70440772	    -17.28494347	      0.90538180	      0.00000000	     -0.26128598	      0.00001531	     -8.77674737	      0.00001388
    139.99700000	      0.00000000	      0.00000000	      0.00000000	      0.00000000	      0.00000000	      0.00000000	      0.00000000	      0.00000000	      0.00000000	    142.99035729	    561.08648646	     -9.34294682	      0.89949799	      0.00000000	     -0.26012862	      0.00001364	     -8.60506208	      0.00001596
    139.99800000	      0.00000000	      0.00000000	      0.00000000	      0.00000000	      0.00000000	      0.00000000	      0.00000000	      0.00000000	      0.00000000	    141.60705033	    546.25668870	     -1.75428918	      0.89365815	      0.00000000	     -0.25895196	      0.00001199	     -8.14458312	      0.00001802
    139.99900000	      0.00000000	      0.00000000	      0.00000000	      0.00000000	      0.00000000	      0.00000000	      0.00000000	      0.00000000	      0.00000000	    139.99902241	    531.37824880	      5.18830981	      0.88803390	      0.00000000	     -0.25780766	      0.00001040	     -7.33535660	      0.00001993
    140.00000000	      0.00000000	      0.00000000	      0.00000000	      0.00000000	      0.00000000	      0.00000000	      0.00000000	      0.00000000	      0.00000000	    138.14492481	    516.58589699	     11.22324856	      0.88277438	      0.00000000	     -0.25674510	      0.00000893	     -6.14241657	      0.00002155
    140.00100000	      0.00000000	      0.00000000	      0.00000000	      0.00000000	      0.00000000	      0.00000000	      0.00000000	      0.00000000	      0.00000000	    136.03956167	    501.98351330	     16.13824082	      0.87799655	      0.00000000	     -0.25580824	      0.00000761	     -4.56344887	      0.00002280
    140.00200000	      0.00000000	      0.00000000	      0.00000000	      0.00000000	      0.00000000	      0.00000000	      0.00000000	      0.00000000	      0.00000000	    133.69715211	    487.64430816	     19.78466155	      0.87377854	      0.00000000	     -0.25503305	      0.00000647	     -2.63398844	      0.00002363
    140.00300000	      0.00000000	      0.00000000	      0.00000000	      0.00000000	      0.00000000	      0.00000000	      0.00000000	      0.00000000	      0.00000000	    131.15280918	    473.61335154	     22.08713267	      0.87015731	      0.00000000	     -0.25444587	      0.00000551	     -0.42904570	      0.00002401
    140.00400000	      0.00000000	      0.00000000	      0.00000000	      0.00000000	      0.00000000	      0.00000000	      0.00000000	      0.00000000	      0.00000000	    128.46191751	    459.91200811	     23.04787477	      0.86713091	      0.00000000	     -0.25406237	      0.00000475	      1.93959807	      0.00002397
    140.00500000	      0.00000000	      0.00000000	      0.00000000	      0.00000000	      0.00000000	      0.00000000	      0.00000000	      0.00000000	      0.00000000	    125.69724616	    446.54348017	     22.74567508	      0.86466427	      0.00000000	     -0.25388722	      0.00000416	      4.33053349	      0.00002355
    140.00600000	      0.00000000	      0.00000000	      0.00000000	      0.00000000	      0.00000000	      0.00000000	      0.00000000	      0.00000000	      0.00000000	    122.94388729	    433.49847502	     21.32955817	      0.86269676	      0.00000000	     -0.25391383	      0.00000375	      6.58374251	      0.00002282
    140.00700000	      0.00000000	      0.00000000	      0.00000000	      0.00000000	      0.00000000	      0.00000000	      0.00000000	      0.00000000	      0.00000000	    120.29237927	    420.76018685	     19.00751437	      0.86114962	      0.00000000	     -0.25412444	      0.00000349	      8.53443811	      0.00002185
    140.00800000	      0.00000000	      0.00000000	      0.00000000	      0.00000000	      0.00000000	      0.00000000	      0.00000000	      0.00000000	      0.00000000	    117.83058932	    408.30817927	     16.03106483	      0.85993243	      0.00000000	     -0.25449060	      0.00000335	     10.02833975	      0.00002073
    140.00900000	      0.00000000	      0.00000000	      0.00000000	      0.00000000	      0.00000000	      0.00000000	      0.00000000	      0.00000000	      0.00000000	    115.63509564	    396.12109169	     12.67692424	      0.85894809	      0.00000000	     -0.25497461	      0.00000333	     10.93682216	      0.00001952
    140.01000000	      0.00000000	      0.00000000	      0.00000000	      0.00000000	      0.00000000	      0.00000000	      0.00000000	      0.00000000	      0.00000000	    113.76295959	    384.17825223	      9.22729470	      0.85809628	      0.00000000	     -0.25553212	      0.00000339	     11.17035980	      0.00001829
    140.01100000	      0.00000000	      0.00000000	      0.00000000	      0.00000000	      0.00000000	      0.00000000	      0.00000000	      0.00000000	      0.00000000	    112.24487677	    372.46036211	      5.95028116	      0.85727537	      0.00000000	     -0.25611602	      0.00000351	     10.68880865	      0.00001709
    140.01200000	      0.00000000	      0.00000000	      0.00000000	      0.00000000	      0.00000000	      0.00000000	      0.00000000	      0.00000000	      0.00000000	    111.08062192	    360.94949914	      3.08174910	      0.85638306	      0.00000000	     -0.25668082	      0.00000368	      9.50732939	      0.00001594
    140.01300000	      0.00000000	      0.00000000	      0.00000000	      0.00000000	      0.00000000	      0.00000000	      0.00000000	      0.00000000	      0.00000000	    110.23743395	    349.62868889	      0.80989011	      0.85531683	      0.00000000	     -0.25718710	      0.00000387	      7.69721277	      0.00001488
